<svg width="62" height="82" viewBox="0 0 62 82" fill="none" xmlns="http://www.w3.org/2000/svg">
<g clip-path="url(#clip0_1208_30)">
<path d="M30.6597 0C22.5313 0.0107403 14.739 3.23185 8.99142 8.95699C3.24382 14.6821 0.0100805 22.444 -0.000701904 30.5406C-0.000701904 52.4662 28.5646 79.9272 29.7782 81.0852C30.0143 81.3138 30.3305 81.4416 30.6597 81.4416C30.9889 81.4416 31.3051 81.3138 31.5412 81.0852C32.7548 79.9272 61.3201 52.4662 61.3201 30.5406C61.3093 22.444 58.0755 14.6821 52.3279 8.95699C46.5803 3.23185 38.788 0.0107403 30.6597 0Z" fill="#CC4429"/>
</g>
<path d="M47.1223 39.0959C46.7202 38.8512 40.8278 36.0476 38.4304 34.9092C38.3033 34.8489 38.1956 35.0198 38.3074 35.1053C40.4114 36.7106 45.5878 40.6535 45.9895 40.8988C46.4947 41.2069 47.158 41.0531 47.4709 40.555C47.7837 40.0574 47.628 39.404 47.1223 39.0959Z" fill="white"/>
<path d="M44.8474 42.3297C44.5111 42.003 39.3994 37.9781 37.3194 36.3432C37.2092 36.2562 37.0658 36.4 37.1551 36.507C38.8437 38.533 42.9991 43.5118 43.3359 43.839C43.7589 44.2501 44.4407 44.2456 44.8581 43.829C45.2756 43.4123 45.2704 42.7408 44.8474 42.3297Z" fill="white"/>
<path d="M41.8989 44.9834C41.6448 44.5909 37.5705 39.5468 35.912 37.4972C35.8243 37.3886 35.6518 37.4972 35.7151 37.6213C36.9036 39.9664 39.8301 45.7313 40.0843 46.1239C40.4037 46.6174 41.0691 46.7622 41.5703 46.4475C42.0714 46.1329 42.2183 45.477 41.8989 44.9834Z" fill="white"/>
<path d="M38.4243 46.925C38.265 46.4867 35.4329 40.6761 34.2791 38.3144C34.2178 38.1892 34.0255 38.2571 34.0586 38.3918C34.6873 40.9385 36.2381 47.2004 36.3973 47.6387C36.5974 48.1901 37.2133 48.477 37.7731 48.28C38.3329 48.083 38.6243 47.4764 38.4243 46.925Z" fill="white"/>
<path d="M34.5985 48.0559C34.5424 47.5935 33.0936 41.3079 32.5027 38.7527C32.4716 38.617 32.2685 38.6411 32.2705 38.7798C32.3078 41.4004 32.4053 47.8453 32.4614 48.3077C32.5318 48.8892 33.0676 49.3038 33.658 49.2345C34.2485 49.1651 34.669 48.6374 34.5985 48.0559Z" fill="white"/>
<path d="M30.6131 48.3202C30.6626 47.8573 30.6707 41.4119 30.6718 38.7909C30.6718 38.6516 30.4687 38.6305 30.4391 38.7667C29.8834 41.33 28.5224 47.6347 28.4724 48.0976C28.4101 48.6796 28.8383 49.2018 29.4297 49.2631C30.0206 49.3244 30.5508 48.9028 30.6131 48.3202Z" fill="white"/>
<path d="M26.668 47.7045C26.821 47.2643 28.2846 40.9817 28.8781 38.427C28.9097 38.2913 28.7163 38.2264 28.6566 38.3526C27.536 40.7299 24.7844 46.5782 24.6313 47.0185C24.439 47.5724 24.7385 48.175 25.3009 48.3645C25.8632 48.5539 26.4756 48.2584 26.668 47.7045Z" fill="white"/>
<path d="M22.9611 46.2395C23.2096 45.8434 26.0561 40.0398 27.2119 37.6786C27.2732 37.5534 27.0997 37.4474 27.0129 37.5575C25.383 39.6297 21.3797 44.7281 21.1307 45.1237C20.8179 45.6212 20.974 46.2746 21.4797 46.5827C21.9849 46.8908 22.6483 46.7375 22.9611 46.2395Z" fill="white"/>
<path d="M19.6779 43.9983C20.0095 43.6671 24.096 38.6325 25.756 36.5839C25.8443 36.4754 25.6984 36.3341 25.5897 36.4221C23.5327 38.0852 18.4776 42.1779 18.1454 42.5096C17.728 42.9263 17.7326 43.5978 18.1556 44.0089C18.5787 44.42 19.2604 44.415 19.6779 43.9983Z" fill="white"/>
<path d="M16.9829 41.0943C17.3815 40.844 22.5029 36.8312 24.5839 35.1977C24.6941 35.1113 24.5839 34.9414 24.4578 35.0037C22.0768 36.1743 16.2236 39.0567 15.8251 39.307C15.324 39.6217 15.177 40.2771 15.4964 40.7706C15.8159 41.2642 16.4818 41.4089 16.9829 41.0943Z" fill="white"/>
<path d="M15.0122 37.6726C15.4572 37.5158 21.3567 34.7263 23.7546 33.5899C23.8817 33.5296 23.8128 33.3401 23.6761 33.3728C21.0904 33.992 14.7325 35.5194 14.2875 35.6762C13.7277 35.8732 13.4364 36.4799 13.6364 37.0312C13.8364 37.5826 14.4524 37.8696 15.0122 37.6726Z" fill="white"/>
<path d="M13.864 33.9045C14.3335 33.8493 20.7153 32.4224 23.3097 31.8403C23.4474 31.8097 23.4229 31.6096 23.2821 31.6117C20.6214 31.6483 14.0778 31.7443 13.6083 31.7996C13.0179 31.869 12.5969 32.3967 12.6673 32.9782C12.7378 33.5597 13.2736 33.9739 13.864 33.9045Z" fill="white"/>
<path d="M13.5956 29.9792C14.0656 30.028 20.6097 30.036 23.2709 30.037C23.4122 30.037 23.4337 29.837 23.2954 29.8078C20.6928 29.2605 14.2916 27.92 13.8216 27.8708C13.2307 27.8095 12.7005 28.2311 12.6382 28.8137C12.576 29.3957 13.0041 29.9179 13.5956 29.9792Z" fill="white"/>
<path d="M14.2207 26.0936C14.6677 26.2443 21.0465 27.6858 23.6403 28.2703C23.7781 28.3015 23.8439 28.111 23.7159 28.0522C21.3021 26.9485 15.3643 24.2385 14.9173 24.0877C14.3549 23.8982 13.743 24.1932 13.5507 24.7471C13.3583 25.301 13.6583 25.9041 14.2207 26.0936Z" fill="white"/>
<path d="M15.7082 22.4421C16.1103 22.6869 22.0028 25.4904 24.4002 26.6288C24.5272 26.6892 24.6349 26.5183 24.5232 26.4328C22.4192 24.8275 17.2427 20.8846 16.8411 20.6393C16.3359 20.3312 15.6725 20.485 15.3597 20.9831C15.0469 21.4807 15.2025 22.134 15.7082 22.4421Z" fill="white"/>
<path d="M17.9831 19.2084C18.3194 19.5351 23.4311 23.5599 25.5111 25.1949C25.6213 25.2819 25.7647 25.1381 25.6754 25.0311C23.9868 23.0051 19.8314 18.0263 19.4947 17.6991C19.0716 17.2879 18.3898 17.2925 17.9724 17.7091C17.555 18.1258 17.5601 18.7973 17.9831 19.2084Z" fill="white"/>
<path d="M20.9322 16.5546C21.1863 16.9472 25.2605 21.9913 26.919 24.0409C27.0068 24.1495 27.1793 24.0409 27.116 23.9168C25.9275 21.5716 23.0009 15.8068 22.7468 15.4142C22.4273 14.9207 21.7619 14.7759 21.2608 15.0906C20.7597 15.4052 20.6127 16.0611 20.9322 16.5546Z" fill="white"/>
<path d="M24.4063 14.6136C24.5655 15.0519 27.3977 20.8625 28.5515 23.2242C28.6127 23.3493 28.8051 23.2815 28.7719 23.1468C28.1432 20.6001 26.5924 14.3382 26.4332 13.8999C26.2332 13.3485 25.6172 13.0615 25.0574 13.2586C24.4976 13.4556 24.2063 14.0622 24.4063 14.6136Z" fill="white"/>
<path d="M28.232 13.4822C28.2881 13.9446 29.7369 20.2302 30.3278 22.7854C30.3589 22.9211 30.5621 22.897 30.56 22.7583C30.5228 20.1377 30.4253 13.6928 30.3692 13.2304C30.2987 12.6489 29.7629 12.2343 29.1725 12.3036C28.5821 12.373 28.1616 12.9007 28.232 13.4822Z" fill="white"/>
<path d="M32.2175 13.2179C32.168 13.6808 32.1598 20.1262 32.1588 22.7472C32.1588 22.8865 32.3619 22.9076 32.3915 22.7714C32.9472 20.2081 34.3082 13.9034 34.3582 13.4405C34.4204 12.8585 33.9923 12.3363 33.4008 12.275C32.8099 12.2136 32.2797 12.6353 32.2175 13.2179Z" fill="white"/>
<path d="M36.1626 13.8341C36.0095 14.2743 34.546 20.5569 33.9525 23.1116C33.9208 23.2473 34.1142 23.3122 34.174 23.186C35.2946 20.8087 38.0461 14.9604 38.1992 14.5201C38.3916 13.9662 38.092 13.3636 37.5297 13.1741C36.9673 12.9846 36.355 13.2802 36.1626 13.8341Z" fill="white"/>
<path d="M39.8699 15.2991C39.6214 15.6952 36.775 21.4988 35.6191 23.86C35.5579 23.9851 35.7314 24.0912 35.8181 23.9811C37.448 21.9089 41.4513 16.8105 41.7004 16.4149C42.0132 15.9173 41.857 15.264 41.3513 14.9559C40.8461 14.6478 40.1827 14.8011 39.8699 15.2991Z" fill="white"/>
<path d="M43.1532 17.5397C42.8215 17.871 38.735 22.9055 37.075 24.9542C36.9867 25.0627 37.1327 25.204 37.2414 25.116C39.2984 23.4529 44.3534 19.3602 44.6856 19.0285C45.1031 18.6118 45.0985 17.9403 44.6754 17.5292C44.2524 17.1181 43.5706 17.1231 43.1532 17.5397Z" fill="white"/>
<path d="M45.8476 20.4438C45.4491 20.6941 40.3277 24.7069 38.2467 26.3403C38.1364 26.4268 38.2467 26.5967 38.3727 26.5343C40.7538 25.3638 46.6069 22.4813 47.0055 22.2311C47.5066 21.9164 47.6535 21.261 47.3341 20.7675C47.0146 20.2739 46.3487 20.1292 45.8476 20.4438Z" fill="white"/>
<defs>
<clipPath id="clip0_1208_30">
<rect width="61.3208" height="81.4416" fill="white"/>
</clipPath>
</defs>
</svg>
