<svg width="39" height="51" viewBox="0 0 39 51" fill="none" xmlns="http://www.w3.org/2000/svg">
<path d="M19.1645 0C14.0839 0.00671331 9.2132 2.02009 5.62061 5.59864C2.02802 9.1772 0.00673965 14.0288 0 19.0897C0 32.7944 17.855 49.9592 18.6136 50.683C18.7611 50.8259 18.9588 50.9058 19.1645 50.9058C19.3703 50.9058 19.568 50.8259 19.7155 50.683C20.4741 49.9592 38.3291 32.7944 38.3291 19.0897C38.3223 14.0288 36.3011 9.1772 32.7085 5.59864C29.1159 2.02009 24.2452 0.00671331 19.1645 0Z" fill="#B1B1B1"/>
<path d="M24.1449 12.839V24.3367C24.1449 24.4892 24.0843 24.6354 23.9765 24.7432C23.8687 24.851 23.7225 24.9116 23.57 24.9116C23.4175 24.9116 23.2713 24.851 23.1635 24.7432C23.0557 24.6354 22.9951 24.4892 22.9951 24.3367V19.1627H14.9468V24.3367C14.9468 24.4892 14.8862 24.6354 14.7784 24.7432C14.6706 24.851 14.5243 24.9116 14.3719 24.9116C14.2194 24.9116 14.0732 24.851 13.9654 24.7432C13.8576 24.6354 13.797 24.4892 13.797 24.3367V12.839C13.797 12.6866 13.8576 12.5404 13.9654 12.4325C14.0732 12.3247 14.2194 12.2642 14.3719 12.2642C14.5243 12.2642 14.6706 12.3247 14.7784 12.4325C14.8862 12.5404 14.9468 12.6866 14.9468 12.839V18.013H22.9951V12.839C22.9951 12.6866 23.0557 12.5404 23.1635 12.4325C23.2713 12.3247 23.4175 12.2642 23.57 12.2642C23.7225 12.2642 23.8687 12.3247 23.9765 12.4325C24.0843 12.5404 24.1449 12.6866 24.1449 12.839Z" fill="white"/>
</svg>
