<svg width="39" height="51" viewBox="0 0 39 51" fill="none" xmlns="http://www.w3.org/2000/svg">
<path d="M19.1645 0C14.0839 0.00671331 9.2132 2.02009 5.62061 5.59864C2.02802 9.1772 0.00673965 14.0288 0 19.0897C0 32.7944 17.855 49.9592 18.6136 50.683C18.7611 50.8259 18.9588 50.9058 19.1645 50.9058C19.3703 50.9058 19.568 50.8259 19.7155 50.683C20.4741 49.9592 38.3291 32.7944 38.3291 19.0897C38.3223 14.0288 36.3011 9.1772 32.7085 5.59864C29.1159 2.02009 24.2452 0.00671331 19.1645 0Z" fill="#B1B1B1"/>
<path d="M24.1929 10.1802H14.1325C13.4654 10.1802 12.8257 10.4452 12.354 10.9168C11.8824 11.3885 11.6174 12.0282 11.6174 12.6953V24.1929C11.6174 24.86 11.8824 25.4997 12.354 25.9714C12.8257 26.4431 13.4654 26.708 14.1325 26.708H15.5697L13.845 29.0076C13.7879 29.0838 13.7633 29.1796 13.7768 29.274C13.7903 29.3683 13.8407 29.4534 13.9169 29.5106C13.9931 29.5678 14.089 29.5923 14.1833 29.5788C14.2776 29.5654 14.3627 29.515 14.4199 29.4387L16.4679 26.708H21.8575L23.9055 29.4387C23.9627 29.515 24.0478 29.5654 24.1421 29.5788C24.2364 29.5923 24.3323 29.5678 24.4085 29.5106C24.4847 29.4534 24.5351 29.3683 24.5486 29.274C24.5621 29.1796 24.5375 29.0838 24.4804 29.0076L22.7557 26.708H24.1929C24.86 26.708 25.4997 26.4431 25.9714 25.9714C26.443 25.4997 26.708 24.86 26.708 24.1929V12.6953C26.708 12.0282 26.443 11.3885 25.9714 10.9168C25.4997 10.4452 24.86 10.1802 24.1929 10.1802ZM12.336 18.8034V14.4918H18.8034V18.8034H12.336ZM19.522 14.4918H25.9894V18.8034H19.522V14.4918ZM14.1325 10.8988H24.1929C24.6694 10.8988 25.1263 11.0881 25.4632 11.425C25.8001 11.7619 25.9894 12.2188 25.9894 12.6953V13.7732H12.336V12.6953C12.336 12.2188 12.5252 11.7619 12.8622 11.425C13.1991 11.0881 13.656 10.8988 14.1325 10.8988ZM24.1929 25.9894H14.1325C13.656 25.9894 13.1991 25.8002 12.8622 25.4632C12.5252 25.1263 12.336 24.6694 12.336 24.1929V19.522H25.9894V24.1929C25.9894 24.6694 25.8001 25.1263 25.4632 25.4632C25.1263 25.8002 24.6694 25.9894 24.1929 25.9894ZM15.929 23.115C15.929 23.2571 15.8868 23.3961 15.8079 23.5143C15.7289 23.6324 15.6167 23.7245 15.4854 23.7789C15.3541 23.8333 15.2096 23.8475 15.0702 23.8198C14.9308 23.7921 14.8028 23.7236 14.7023 23.6232C14.6018 23.5227 14.5333 23.3946 14.5056 23.2552C14.4779 23.1158 14.4921 22.9713 14.5465 22.84C14.6009 22.7087 14.693 22.5965 14.8111 22.5175C14.9293 22.4386 15.0683 22.3964 15.2104 22.3964C15.401 22.3964 15.5837 22.4721 15.7185 22.6069C15.8533 22.7417 15.929 22.9244 15.929 23.115ZM23.8336 23.115C23.8336 23.2571 23.7915 23.3961 23.7125 23.5143C23.6335 23.6324 23.5213 23.7245 23.39 23.7789C23.2587 23.8333 23.1142 23.8475 22.9748 23.8198C22.8354 23.7921 22.7074 23.7236 22.6069 23.6232C22.5064 23.5227 22.4379 23.3946 22.4102 23.2552C22.3825 23.1158 22.3967 22.9713 22.4511 22.84C22.5055 22.7087 22.5976 22.5965 22.7158 22.5175C22.834 22.4386 22.9729 22.3964 23.115 22.3964C23.3056 22.3964 23.4884 22.4721 23.6231 22.6069C23.7579 22.7417 23.8336 22.9244 23.8336 23.115Z" fill="white"/>
</svg>
