<svg width="39" height="51" viewBox="0 0 39 51" fill="none" xmlns="http://www.w3.org/2000/svg">
<path d="M19.1645 0C14.0839 0.00671331 9.2132 2.02009 5.62061 5.59864C2.02802 9.1772 0.00673965 14.0288 0 19.0897C0 32.7944 17.855 49.9592 18.6136 50.683C18.7611 50.8259 18.9588 50.9058 19.1645 50.9058C19.3703 50.9058 19.568 50.8259 19.7155 50.683C20.4741 49.9592 38.3291 32.7944 38.3291 19.0897C38.3223 14.0288 36.3011 9.1772 32.7085 5.59864C29.1159 2.02009 24.2452 0.00671331 19.1645 0Z" fill="#B1B1B1"/>
<path d="M24.1934 10.1802H14.133C13.466 10.1802 12.8262 10.4452 12.3545 10.9168C11.8829 11.3885 11.6179 12.0282 11.6179 12.6953V24.1929C11.6179 24.86 11.8829 25.4997 12.3545 25.9714C12.8262 26.4431 13.466 26.708 14.133 26.708H15.5702L13.8456 29.0076C13.7884 29.0838 13.7638 29.1796 13.7773 29.274C13.7908 29.3683 13.8412 29.4534 13.9174 29.5106C13.9937 29.5678 14.0895 29.5923 14.1838 29.5788C14.2781 29.5654 14.3633 29.515 14.4204 29.4387L16.4685 26.708H21.858L23.906 29.4387C23.9632 29.515 24.0483 29.5654 24.1426 29.5788C24.237 29.5923 24.3328 29.5678 24.409 29.5106C24.4852 29.4534 24.5356 29.3683 24.5491 29.274C24.5626 29.1796 24.5381 29.0838 24.4809 29.0076L22.7562 26.708H24.1934C24.8605 26.708 25.5002 26.4431 25.9719 25.9714C26.4436 25.4997 26.7085 24.86 26.7085 24.1929V12.6953C26.7085 12.0282 26.4436 11.3885 25.9719 10.9168C25.5002 10.4452 24.8605 10.1802 24.1934 10.1802ZM12.3365 18.8034V14.4918H18.8039V18.8034H12.3365ZM19.5225 14.4918H25.9899V18.8034H19.5225V14.4918ZM14.133 10.8988H24.1934C24.6699 10.8988 25.1268 11.0881 25.4638 11.425C25.8007 11.7619 25.9899 12.2188 25.9899 12.6953V13.7732H12.3365V12.6953C12.3365 12.2188 12.5258 11.7619 12.8627 11.425C13.1996 11.0881 13.6565 10.8988 14.133 10.8988ZM24.1934 25.9894H14.133C13.6565 25.9894 13.1996 25.8002 12.8627 25.4632C12.5258 25.1263 12.3365 24.6694 12.3365 24.1929V19.522H25.9899V24.1929C25.9899 24.6694 25.8007 25.1263 25.4638 25.4632C25.1268 25.8002 24.6699 25.9894 24.1934 25.9894ZM15.9295 23.115C15.9295 23.2571 15.8874 23.3961 15.8084 23.5143C15.7294 23.6324 15.6172 23.7245 15.4859 23.7789C15.3546 23.8333 15.2101 23.8475 15.0707 23.8198C14.9313 23.7921 14.8033 23.7236 14.7028 23.6232C14.6023 23.5227 14.5338 23.3946 14.5061 23.2552C14.4784 23.1158 14.4926 22.9713 14.547 22.84C14.6014 22.7087 14.6935 22.5965 14.8117 22.5175C14.9298 22.4386 15.0688 22.3964 15.2109 22.3964C15.4015 22.3964 15.5843 22.4721 15.719 22.6069C15.8538 22.7417 15.9295 22.9244 15.9295 23.115ZM23.8341 23.115C23.8341 23.2571 23.792 23.3961 23.713 23.5143C23.6341 23.6324 23.5218 23.7245 23.3905 23.7789C23.2592 23.8333 23.1147 23.8475 22.9753 23.8198C22.8359 23.7921 22.7079 23.7236 22.6074 23.6232C22.5069 23.5227 22.4385 23.3946 22.4107 23.2552C22.383 23.1158 22.3972 22.9713 22.4516 22.84C22.506 22.7087 22.5981 22.5965 22.7163 22.5175C22.8345 22.4386 22.9734 22.3964 23.1155 22.3964C23.3061 22.3964 23.4889 22.4721 23.6237 22.6069C23.7584 22.7417 23.8341 22.9244 23.8341 23.115Z" fill="white"/>
</svg>
