<svg width="39" height="51" viewBox="0 0 39 51" fill="none" xmlns="http://www.w3.org/2000/svg">
<path d="M19.1645 0C14.0839 0.00671331 9.2132 2.02009 5.62061 5.59864C2.02802 9.1772 0.00673965 14.0288 0 19.0897C0 32.7944 17.855 49.9592 18.6136 50.683C18.7611 50.8259 18.9588 50.9058 19.1645 50.9058C19.3703 50.9058 19.568 50.8259 19.7155 50.683C20.4741 49.9592 38.3291 32.7944 38.3291 19.0897C38.3223 14.0288 36.3011 9.1772 32.7085 5.59864C29.1159 2.02009 24.2452 0.00671331 19.1645 0Z" fill="#B1B1B1"/>
<path d="M24.1453 12.839V24.3367C24.1453 24.4892 24.0847 24.6354 23.9769 24.7432C23.8691 24.851 23.7229 24.9116 23.5704 24.9116C23.418 24.9116 23.2717 24.851 23.1639 24.7432C23.0561 24.6354 22.9955 24.4892 22.9955 24.3367V19.1627H14.9472V24.3367C14.9472 24.4892 14.8866 24.6354 14.7788 24.7432C14.671 24.851 14.5248 24.9116 14.3723 24.9116C14.2198 24.9116 14.0736 24.851 13.9658 24.7432C13.858 24.6354 13.7974 24.4892 13.7974 24.3367V12.839C13.7974 12.6866 13.858 12.5404 13.9658 12.4325C14.0736 12.3247 14.2198 12.2642 14.3723 12.2642C14.5248 12.2642 14.671 12.3247 14.7788 12.4325C14.8866 12.5404 14.9472 12.6866 14.9472 12.839V18.013H22.9955V12.839C22.9955 12.6866 23.0561 12.5404 23.1639 12.4325C23.2717 12.3247 23.418 12.2642 23.5704 12.2642C23.7229 12.2642 23.8691 12.3247 23.9769 12.4325C24.0847 12.5404 24.1453 12.6866 24.1453 12.839Z" fill="white"/>
</svg>
