<svg width="39" height="51" viewBox="0 0 39 51" fill="none" xmlns="http://www.w3.org/2000/svg">
<path d="M19.1645 0C14.0839 0.00671331 9.2132 2.02009 5.62061 5.59864C2.02802 9.1772 0.00673965 14.0288 0 19.0897C0 32.7944 17.855 49.9592 18.6136 50.683C18.7611 50.8259 18.9588 50.9058 19.1645 50.9058C19.3703 50.9058 19.568 50.8259 19.7155 50.683C20.4741 49.9592 38.3291 32.7944 38.3291 19.0897C38.3223 14.0288 36.3011 9.1772 32.7085 5.59864C29.1159 2.02009 24.2452 0.00671331 19.1645 0Z" fill="#B1B1B1"/>
<path d="M9.82128 16.6476H12.3364V23.115H10.5399C10.4446 23.115 10.3532 23.1529 10.2858 23.2203C10.2184 23.2877 10.1806 23.379 10.1806 23.4743C10.1806 23.5696 10.2184 23.661 10.2858 23.7284C10.3532 23.7958 10.4446 23.8336 10.5399 23.8336H27.7863C27.8816 23.8336 27.973 23.7958 28.0404 23.7284C28.1078 23.661 28.1456 23.5696 28.1456 23.4743C28.1456 23.379 28.1078 23.2877 28.0404 23.2203C27.973 23.1529 27.8816 23.115 27.7863 23.115H25.9898V16.6476H28.5049C28.5833 16.6478 28.6596 16.6224 28.7221 16.5752C28.7847 16.528 28.8301 16.4617 28.8515 16.3863C28.8728 16.3109 28.869 16.2306 28.8405 16.1576C28.812 16.0846 28.7604 16.023 28.6936 15.982L19.3517 10.2332C19.295 10.1982 19.2297 10.1797 19.1631 10.1797C19.0965 10.1797 19.0312 10.1982 18.9745 10.2332L9.63265 15.982C9.56585 16.023 9.51428 16.0846 9.48578 16.1576C9.45728 16.2306 9.45341 16.3109 9.47478 16.3863C9.49614 16.4617 9.54156 16.528 9.60411 16.5752C9.66667 16.6224 9.74293 16.6478 9.82128 16.6476ZM13.055 16.6476H16.648V23.115H13.055V16.6476ZM20.9596 16.6476V23.115H17.3666V16.6476H20.9596ZM25.2712 23.115H21.6782V16.6476H25.2712V23.115ZM19.1631 10.9617L27.2357 15.929H11.0905L19.1631 10.9617ZM29.5829 26.3487C29.5829 26.444 29.545 26.5354 29.4776 26.6028C29.4102 26.6702 29.3188 26.708 29.2236 26.708H9.10268C9.00739 26.708 8.916 26.6702 8.84861 26.6028C8.78123 26.5354 8.74338 26.444 8.74338 26.3487C8.74338 26.2535 8.78123 26.1621 8.84861 26.0947C8.916 26.0273 9.00739 25.9894 9.10268 25.9894H29.2236C29.3188 25.9894 29.4102 26.0273 29.4776 26.0947C29.545 26.1621 29.5829 26.2535 29.5829 26.3487Z" fill="white"/>
</svg>
