<svg width="39" height="51" viewBox="0 0 39 51" fill="none" xmlns="http://www.w3.org/2000/svg">
<path d="M19.1645 0C14.0839 0.00671331 9.2132 2.02009 5.62061 5.59864C2.02802 9.1772 0.00673965 14.0288 0 19.0897C0 32.7944 17.855 49.9592 18.6136 50.683C18.7611 50.8259 18.9588 50.9058 19.1645 50.9058C19.3703 50.9058 19.568 50.8259 19.7155 50.683C20.4741 49.9592 38.3291 32.7944 38.3291 19.0897C38.3223 14.0288 36.3011 9.1772 32.7085 5.59864C29.1159 2.02009 24.2452 0.00671331 19.1645 0Z" fill="#B1B1B1"/>
<path d="M30.795 15.0827L19.1819 9.15674C19.1259 9.1282 19.0635 9.11328 19 9.11328C18.9365 9.11328 18.8741 9.1282 18.8181 9.15674L7.20504 15.0827C7.14311 15.1143 7.09131 15.1614 7.0552 15.2189C7.01908 15.2765 7 15.3424 7 15.4095C7 15.4767 7.01908 15.5426 7.0552 15.6001C7.09131 15.6577 7.14311 15.7048 7.20504 15.7364L10.0967 17.2123V21.9179C10.0945 22.1906 10.1979 22.4545 10.387 22.6586C11.6112 23.9633 14.3548 26.1522 19 26.1522C21.0323 26.1522 22.6968 25.7336 24.0323 25.1531V28.7429C24.0323 28.8411 24.0731 28.9353 24.1457 29.0048C24.2183 29.0743 24.3167 29.1133 24.4194 29.1133C24.5221 29.1133 24.6205 29.0743 24.6931 29.0048C24.7657 28.9353 24.8065 28.8411 24.8065 28.7429V24.7781C25.8587 24.2251 26.8072 23.5082 27.613 22.6568C27.8019 22.4526 27.9053 22.1888 27.9033 21.916V17.2123L30.795 15.7364C30.8569 15.7048 30.9087 15.6577 30.9448 15.6001C30.9809 15.5426 31 15.4767 31 15.4095C31 15.3424 30.9809 15.2765 30.9448 15.2189C30.9087 15.1614 30.8569 15.1143 30.795 15.0827ZM19 25.4096C14.6616 25.4096 12.1048 23.3725 10.9677 22.1614C10.905 22.0945 10.8705 22.0077 10.8709 21.9179V17.6068L18.8181 21.6623C18.8741 21.6909 18.9365 21.7058 19 21.7058C19.0635 21.7058 19.1259 21.6909 19.1819 21.6623L24.0323 19.1873V24.329C22.7336 24.9466 21.07 25.4096 19 25.4096ZM27.1291 21.9179C27.129 22.0079 27.0946 22.0948 27.0323 22.1623C26.3833 22.8487 25.6335 23.4413 24.8065 23.9216V18.792L27.1291 17.6068V21.9179ZM24.7494 17.9818C24.7134 17.9255 24.6622 17.8795 24.6013 17.8484L19.1819 15.0827C19.0915 15.0385 18.9866 15.0301 18.8898 15.0592C18.7929 15.0883 18.7119 15.1527 18.6642 15.2384C18.6165 15.3241 18.6059 15.4244 18.6346 15.5175C18.6634 15.6107 18.7293 15.6893 18.8181 15.7364L23.9839 18.3725L19 20.916L8.20957 15.4095L19 9.90304L29.7904 15.4095L24.7494 17.9818Z" fill="white"/>
</svg>
