<svg width="867" height="832" viewBox="0 0 867 832" fill="none" xmlns="http://www.w3.org/2000/svg">
<g style="mix-blend-mode:soft-light">
<path d="M1136.04 824.587C1122.43 817.872 925.23 744.719 845.005 715.029C840.753 713.456 837.803 719.28 841.638 721.708C913.827 767.31 1091.42 879.292 1105.02 886.025C1122.12 894.48 1142.94 887.581 1151.51 870.608C1160.08 853.651 1153.16 833.041 1136.04 824.587Z" fill="url(#paint0_linear_215_1627)"/>
<path d="M1072.6 935.498C1060.86 925.949 885.104 811.136 813.598 764.508C809.807 762.027 805.632 767.081 808.81 770.271C868.916 830.651 1016.81 979.016 1028.57 988.58C1043.34 1000.6 1065.19 998.457 1077.35 983.803C1089.51 969.149 1087.38 947.515 1072.6 935.498Z" fill="url(#paint1_linear_215_1627)"/>
<path d="M985.854 1029.68C976.551 1017.77 831.069 867.059 771.86 805.829C768.726 802.586 763.514 806.59 765.908 810.407C810.916 882.54 921.714 1059.84 931.018 1071.75C942.713 1086.73 964.477 1089.45 979.621 1077.84C994.765 1066.23 997.549 1044.66 985.854 1029.68Z" fill="url(#paint2_linear_215_1627)"/>
<path d="M880.142 1102.44C873.748 1088.77 765.842 909.721 721.898 836.953C719.567 833.097 713.597 835.847 715.057 840.093C742.706 920.36 810.849 1117.71 817.244 1131.38C825.279 1148.57 845.874 1156.02 863.246 1148.03C880.618 1140.04 888.178 1119.63 880.142 1102.44Z" fill="url(#paint3_linear_215_1627)"/>
<path d="M760.788 1150.09C757.628 1135.34 692.688 936.931 666.225 856.278C664.827 851.994 658.386 853.366 658.859 857.832C667.76 942.211 689.836 1149.71 692.996 1164.46C696.964 1183 715.366 1194.8 734.095 1190.84C752.824 1186.87 764.756 1168.63 760.788 1150.09Z" fill="url(#paint4_linear_215_1627)"/>
<path d="M633.763 1170.27C633.989 1155.2 615.298 947.372 607.624 862.865C607.214 858.376 600.64 858.29 600.091 862.767C589.808 947.034 564.705 1154.28 564.462 1169.35C564.177 1188.3 579.442 1203.88 598.588 1204.13C617.718 1204.37 633.48 1189.23 633.763 1170.27Z" fill="url(#paint5_linear_215_1627)"/>
<path d="M505.444 1161.95C509.059 1147.31 537.516 940.48 549.035 856.379C549.65 851.912 543.258 850.387 541.714 854.629C512.77 934.552 441.733 1131.15 438.119 1145.79C433.578 1164.21 444.956 1182.76 463.546 1187.23C482.136 1191.69 500.904 1180.37 505.444 1161.95Z" fill="url(#paint6_linear_215_1627)"/>
<path d="M382.269 1125.56C389.074 1112.07 463.285 916.632 493.406 837.124C495.002 832.91 489.126 829.998 486.668 833.801C440.496 905.377 327.114 1081.46 320.291 1094.94C311.723 1111.9 318.652 1132.51 335.775 1140.96C352.881 1149.42 373.703 1142.53 382.269 1125.56Z" fill="url(#paint7_linear_215_1627)"/>
<path d="M270.394 1062.91C280.057 1051.26 396.294 876.993 443.502 806.09C446.013 802.331 440.918 798.205 437.691 801.359C376.619 860.994 226.553 1007.73 216.876 1019.4C204.716 1034.05 206.838 1055.68 221.612 1067.7C236.387 1079.72 258.234 1077.56 270.394 1062.91Z" fill="url(#paint8_linear_215_1627)"/>
<path d="M175.437 977.164C187.482 967.929 339.909 823.577 401.838 764.827C405.118 761.718 401.084 756.563 397.225 758.941C324.314 803.644 145.096 913.694 133.052 922.929C117.908 934.538 115.123 956.098 126.818 971.077C138.513 986.055 160.293 988.774 175.437 977.164Z" fill="url(#paint9_linear_215_1627)"/>
<path d="M102.179 872.611C115.987 866.254 296.966 759.066 370.518 715.415C374.416 713.099 371.649 707.192 367.36 708.645C286.265 736.171 86.8797 804.01 73.0716 810.367C55.6998 818.357 48.14 838.767 56.1759 855.958C64.2118 873.149 84.8069 880.6 102.179 872.611Z" fill="url(#paint10_linear_215_1627)"/>
<path d="M54.28 754.487C69.1721 751.331 269.622 686.663 351.105 660.31C355.433 658.919 354.059 652.541 349.549 653.018C264.335 661.983 54.7841 684.216 39.892 687.372C21.163 691.335 9.21472 709.58 13.1829 728.122C17.1511 746.664 35.551 758.45 54.28 754.487Z" fill="url(#paint11_linear_215_1627)"/>
<path d="M34.1298 628.718C49.3443 628.915 259.218 610.035 344.558 602.284C349.091 601.87 349.19 595.358 344.67 594.823C259.605 584.788 50.3951 560.294 35.1792 560.08C16.0495 559.832 0.287389 574.978 0.00392237 593.94C-0.281025 612.887 14.9838 628.471 34.1298 628.718Z" fill="url(#paint12_linear_215_1627)"/>
<path d="M42.7497 501.616C57.5278 505.169 266.314 532.986 351.211 544.245C355.721 544.847 357.271 538.513 352.991 536.992C272.345 508.467 73.9661 438.461 59.188 434.908C40.5978 430.443 21.8451 441.745 17.3046 460.164C12.7641 478.584 24.1596 497.151 42.7497 501.616Z" fill="url(#paint13_linear_215_1627)"/>
<path d="M79.7132 379.542C93.3277 386.257 290.525 459.41 370.749 489.1C375.001 490.673 377.952 484.849 374.117 482.421C301.928 436.819 124.339 324.838 110.74 318.105C93.6334 309.649 72.8127 316.548 64.2463 333.521C55.6784 350.478 62.5907 371.088 79.7132 379.542Z" fill="url(#paint14_linear_215_1627)"/>
<path d="M143.154 268.631C154.899 278.18 330.65 392.993 402.157 439.621C405.947 442.102 410.123 437.048 406.944 433.858C346.839 373.478 198.948 225.114 187.186 215.55C172.411 203.532 150.562 205.672 138.402 220.326C126.241 234.98 128.38 256.614 143.154 268.631Z" fill="url(#paint15_linear_215_1627)"/>
<path d="M229.917 174.448C239.221 186.361 384.702 337.069 443.911 398.299C447.045 401.542 452.257 397.537 449.863 393.72C404.855 321.588 294.057 144.286 284.753 132.374C273.058 117.396 251.294 114.675 236.15 126.285C221.006 137.894 218.222 159.47 229.917 174.448Z" fill="url(#paint16_linear_215_1627)"/>
<path d="M335.614 101.707C342.009 115.372 449.914 294.424 493.858 367.192C496.189 371.048 502.159 368.298 500.699 364.052C473.05 283.785 404.907 86.4336 398.513 72.7693C390.477 55.5785 369.882 48.1274 352.51 56.1167C335.138 64.106 327.579 84.5166 335.614 101.707Z" fill="url(#paint17_linear_215_1627)"/>
<path d="M454.967 54.0428C458.127 68.7864 523.067 267.198 549.53 347.851C550.927 352.135 557.369 350.763 556.896 346.297C547.995 261.917 525.918 54.4174 522.758 39.6738C518.79 21.1316 500.389 9.33047 481.66 13.2935C462.931 17.2564 450.999 35.5006 454.967 54.0428Z" fill="url(#paint18_linear_215_1627)"/>
<path d="M581.991 33.8629C581.765 48.9317 600.456 256.757 608.131 341.264C608.54 345.753 615.115 345.839 615.664 341.362C625.947 257.095 651.049 49.8507 651.292 34.7805C651.577 15.834 636.312 0.249977 617.166 0.00287761C598.037 -0.245713 582.275 14.9003 581.991 33.8629Z" fill="url(#paint19_linear_215_1627)"/>
<path d="M710.312 42.1908C706.697 56.8334 678.24 263.665 666.721 347.766C666.106 352.234 672.498 353.759 674.042 349.517C702.986 269.594 774.023 72.9953 777.638 58.3528C782.178 39.9332 770.8 21.3805 752.21 16.9162C733.62 12.452 714.852 23.7712 710.312 42.1908Z" fill="url(#paint20_linear_215_1627)"/>
<path d="M833.503 78.5827C826.699 92.0784 752.487 287.512 722.366 367.02C720.77 371.234 726.646 374.145 729.104 370.343C775.277 298.766 888.659 122.683 895.481 109.202C904.049 92.2452 897.121 71.6367 879.998 63.1826C862.892 54.7271 842.07 61.6095 833.503 78.5827Z" fill="url(#paint21_linear_215_1627)"/>
<path d="M945.377 141.218C935.714 152.866 819.477 327.135 772.269 398.038C769.758 401.796 774.853 405.923 778.08 402.769C839.152 343.133 989.218 196.399 998.895 184.732C1011.06 170.078 1008.93 148.443 994.159 136.426C979.384 124.408 957.537 126.564 945.377 141.218Z" fill="url(#paint22_linear_215_1627)"/>
<path d="M1040.32 226.965C1028.27 236.2 875.845 380.552 813.917 439.302C810.637 442.412 814.671 447.566 818.529 445.188C891.441 400.485 1070.66 290.435 1082.7 281.2C1097.85 269.591 1100.63 248.031 1088.94 233.053C1077.24 218.074 1055.46 215.355 1040.32 226.965Z" fill="url(#paint23_linear_215_1627)"/>
</g>
<defs>
<linearGradient id="paint0_linear_215_1627" x1="512.334" y1="9.37175" x2="621.134" y2="1202.26" gradientUnits="userSpaceOnUse">
<stop stop-color="white" stop-opacity="0"/>
<stop offset="1" stop-color="white"/>
</linearGradient>
<linearGradient id="paint1_linear_215_1627" x1="512.334" y1="9.37175" x2="621.134" y2="1202.26" gradientUnits="userSpaceOnUse">
<stop stop-color="white" stop-opacity="0"/>
<stop offset="1" stop-color="white"/>
</linearGradient>
<linearGradient id="paint2_linear_215_1627" x1="512.334" y1="9.37175" x2="621.134" y2="1202.26" gradientUnits="userSpaceOnUse">
<stop stop-color="white" stop-opacity="0"/>
<stop offset="1" stop-color="white"/>
</linearGradient>
<linearGradient id="paint3_linear_215_1627" x1="512.334" y1="9.37175" x2="621.134" y2="1202.26" gradientUnits="userSpaceOnUse">
<stop stop-color="white" stop-opacity="0"/>
<stop offset="1" stop-color="white"/>
</linearGradient>
<linearGradient id="paint4_linear_215_1627" x1="512.334" y1="9.37175" x2="621.134" y2="1202.26" gradientUnits="userSpaceOnUse">
<stop stop-color="white" stop-opacity="0"/>
<stop offset="1" stop-color="white"/>
</linearGradient>
<linearGradient id="paint5_linear_215_1627" x1="512.334" y1="9.37175" x2="621.134" y2="1202.26" gradientUnits="userSpaceOnUse">
<stop stop-color="white" stop-opacity="0"/>
<stop offset="1" stop-color="white"/>
</linearGradient>
<linearGradient id="paint6_linear_215_1627" x1="512.334" y1="9.37175" x2="621.134" y2="1202.26" gradientUnits="userSpaceOnUse">
<stop stop-color="white" stop-opacity="0"/>
<stop offset="1" stop-color="white"/>
</linearGradient>
<linearGradient id="paint7_linear_215_1627" x1="512.334" y1="9.37175" x2="621.134" y2="1202.26" gradientUnits="userSpaceOnUse">
<stop stop-color="white" stop-opacity="0"/>
<stop offset="1" stop-color="white"/>
</linearGradient>
<linearGradient id="paint8_linear_215_1627" x1="512.334" y1="9.37175" x2="621.134" y2="1202.26" gradientUnits="userSpaceOnUse">
<stop stop-color="white" stop-opacity="0"/>
<stop offset="1" stop-color="white"/>
</linearGradient>
<linearGradient id="paint9_linear_215_1627" x1="512.334" y1="9.37175" x2="621.134" y2="1202.26" gradientUnits="userSpaceOnUse">
<stop stop-color="white" stop-opacity="0"/>
<stop offset="1" stop-color="white"/>
</linearGradient>
<linearGradient id="paint10_linear_215_1627" x1="512.334" y1="9.37175" x2="621.134" y2="1202.26" gradientUnits="userSpaceOnUse">
<stop stop-color="white" stop-opacity="0"/>
<stop offset="1" stop-color="white"/>
</linearGradient>
<linearGradient id="paint11_linear_215_1627" x1="512.334" y1="9.37175" x2="621.134" y2="1202.26" gradientUnits="userSpaceOnUse">
<stop stop-color="white" stop-opacity="0"/>
<stop offset="1" stop-color="white"/>
</linearGradient>
<linearGradient id="paint12_linear_215_1627" x1="512.334" y1="9.37175" x2="621.134" y2="1202.26" gradientUnits="userSpaceOnUse">
<stop stop-color="white" stop-opacity="0"/>
<stop offset="1" stop-color="white"/>
</linearGradient>
<linearGradient id="paint13_linear_215_1627" x1="512.334" y1="9.37175" x2="621.134" y2="1202.26" gradientUnits="userSpaceOnUse">
<stop stop-color="white" stop-opacity="0"/>
<stop offset="1" stop-color="white"/>
</linearGradient>
<linearGradient id="paint14_linear_215_1627" x1="512.334" y1="9.37175" x2="621.134" y2="1202.26" gradientUnits="userSpaceOnUse">
<stop stop-color="white" stop-opacity="0"/>
<stop offset="1" stop-color="white"/>
</linearGradient>
<linearGradient id="paint15_linear_215_1627" x1="512.334" y1="9.37175" x2="621.134" y2="1202.26" gradientUnits="userSpaceOnUse">
<stop stop-color="white" stop-opacity="0"/>
<stop offset="1" stop-color="white"/>
</linearGradient>
<linearGradient id="paint16_linear_215_1627" x1="512.334" y1="9.37175" x2="621.134" y2="1202.26" gradientUnits="userSpaceOnUse">
<stop stop-color="white" stop-opacity="0"/>
<stop offset="1" stop-color="white"/>
</linearGradient>
<linearGradient id="paint17_linear_215_1627" x1="512.334" y1="9.37175" x2="621.134" y2="1202.26" gradientUnits="userSpaceOnUse">
<stop stop-color="white" stop-opacity="0"/>
<stop offset="1" stop-color="white"/>
</linearGradient>
<linearGradient id="paint18_linear_215_1627" x1="512.334" y1="9.37175" x2="621.134" y2="1202.26" gradientUnits="userSpaceOnUse">
<stop stop-color="white" stop-opacity="0"/>
<stop offset="1" stop-color="white"/>
</linearGradient>
<linearGradient id="paint19_linear_215_1627" x1="512.334" y1="9.37175" x2="621.134" y2="1202.26" gradientUnits="userSpaceOnUse">
<stop stop-color="white" stop-opacity="0"/>
<stop offset="1" stop-color="white"/>
</linearGradient>
<linearGradient id="paint20_linear_215_1627" x1="512.334" y1="9.37175" x2="621.134" y2="1202.26" gradientUnits="userSpaceOnUse">
<stop stop-color="white" stop-opacity="0"/>
<stop offset="1" stop-color="white"/>
</linearGradient>
<linearGradient id="paint21_linear_215_1627" x1="512.334" y1="9.37175" x2="621.134" y2="1202.26" gradientUnits="userSpaceOnUse">
<stop stop-color="white" stop-opacity="0"/>
<stop offset="1" stop-color="white"/>
</linearGradient>
<linearGradient id="paint22_linear_215_1627" x1="512.334" y1="9.37175" x2="621.134" y2="1202.26" gradientUnits="userSpaceOnUse">
<stop stop-color="white" stop-opacity="0"/>
<stop offset="1" stop-color="white"/>
</linearGradient>
<linearGradient id="paint23_linear_215_1627" x1="512.334" y1="9.37175" x2="621.134" y2="1202.26" gradientUnits="userSpaceOnUse">
<stop stop-color="white" stop-opacity="0"/>
<stop offset="1" stop-color="white"/>
</linearGradient>
</defs>
</svg>
